<svg xmlns="http://www.w3.org/2000/svg" width="170" height="47" viewBox="0 0 44.979 12.435" version="1.1" id="svg823"><g id="layer1" transform="translate(0 -284.565)" fill="none" stroke="#000" stroke-width=".794" stroke-linecap="butt" stroke-linejoin="miter" stroke-miterlimit="4" stroke-dasharray="none" stroke-opacity="1"><path d="M-.584 287.74l4.086-2.646 4.085 2.646 4.086-2.646 4.085 2.646 4.086-2.646 4.085 2.646 4.086-2.646 4.085 2.646 4.086-2.646 4.085 2.646 4.086-2.646 1.361 1.323" id="path827"/><path d="M-.584 291.708l4.086-2.645 4.085 2.645 4.086-2.645 4.085 2.645 4.086-2.645 4.085 2.645 4.086-2.645 4.085 2.645 4.086-2.645 4.085 2.645 4.086-2.645 1.361 1.322" id="path827-3"/><path d="M-.584 295.677l4.086-2.646 4.085 2.646 4.086-2.646 4.085 2.646 4.086-2.646 4.085 2.646 4.086-2.646 4.085 2.646 4.086-2.646 4.085 2.646 4.086-2.646 1.361 1.323" id="path827-2"/></g></svg>