<svg xmlns="http://www.w3.org/2000/svg" width="175" height="70" viewBox="0 0 46.302 18.521" version="1.1" id="svg4548"><g id="layer1" transform="translate(0 -278.48)" display="inline" stroke="#000" stroke-opacity="1" stroke-miterlimit="4" stroke-dasharray="none" fill="none" stroke-width="1.609" stroke-linecap="butt" stroke-linejoin="miter"><path d="M-1.323 282.448s4.08-3.969 8.158 0c4.08 3.969 8.158 0 8.158 0s4.079-3.969 8.158 0 8.158 0 8.158 0 4.079-3.969 8.158 0 8.158 0 8.158 0" id="path859"/><path d="M-1.323 293.031s4.08-3.969 8.158 0c4.08 3.969 8.158 0 8.158 0s4.079-3.969 8.158 0 8.158 0 8.158 0 4.079-3.969 8.158 0 8.158 0 8.158 0" id="path859-6" display="inline"/><path d="M-1.323 287.74s4.08-3.97 8.158 0c4.08 3.968 8.158 0 8.158 0s4.079-3.97 8.158 0c4.079 3.968 8.158 0 8.158 0s4.079-3.97 8.158 0c4.079 3.968 8.158 0 8.158 0" id="path859-7" display="inline"/></g></svg>